<mxfile host="Electron" modified="2023-07-10T23:51:01.141Z" agent="Mozilla/5.0 (Windows NT 10.0; Win64; x64) AppleWebKit/537.36 (KHTML, like Gecko) draw.io/21.6.1 Chrome/112.0.5615.204 Electron/24.6.1 Safari/537.36" etag="d2RspXHrIlOAWg5qku5E" version="21.6.1" type="device">
  <diagram name="Page-1" id="AXb0L6RS5NqQoktzbOtL">
    <mxGraphModel dx="1750" dy="1035" grid="1" gridSize="10" guides="1" tooltips="1" connect="1" arrows="1" fold="1" page="1" pageScale="1" pageWidth="850" pageHeight="1100" math="0" shadow="0">
      <root>
        <mxCell id="0" />
        <mxCell id="1" parent="0" />
        <mxCell id="eXjIsgKACJg5tTMsHQH0-1" value="" style="rounded=0;whiteSpace=wrap;html=1;" vertex="1" parent="1">
          <mxGeometry x="40" y="40" width="760" height="960" as="geometry" />
        </mxCell>
        <mxCell id="eXjIsgKACJg5tTMsHQH0-2" value="" style="endArrow=none;dashed=1;html=1;dashPattern=1 3;strokeWidth=2;rounded=0;entryX=0.099;entryY=1;entryDx=0;entryDy=0;entryPerimeter=0;exitX=0.098;exitY=0;exitDx=0;exitDy=0;exitPerimeter=0;" edge="1" parent="1">
          <mxGeometry width="50" height="50" relative="1" as="geometry">
            <mxPoint x="119.48000000000002" y="40" as="sourcePoint" />
            <mxPoint x="120.24000000000001" y="1000" as="targetPoint" />
          </mxGeometry>
        </mxCell>
        <mxCell id="eXjIsgKACJg5tTMsHQH0-3" value="" style="endArrow=none;dashed=1;html=1;dashPattern=1 3;strokeWidth=2;rounded=0;entryX=0.099;entryY=1;entryDx=0;entryDy=0;entryPerimeter=0;exitX=0.098;exitY=0;exitDx=0;exitDy=0;exitPerimeter=0;" edge="1" parent="1">
          <mxGeometry width="50" height="50" relative="1" as="geometry">
            <mxPoint x="200" y="40" as="sourcePoint" />
            <mxPoint x="201" y="1000" as="targetPoint" />
          </mxGeometry>
        </mxCell>
        <mxCell id="eXjIsgKACJg5tTMsHQH0-4" value="" style="endArrow=none;dashed=1;html=1;dashPattern=1 3;strokeWidth=2;rounded=0;entryX=0.099;entryY=1;entryDx=0;entryDy=0;entryPerimeter=0;exitX=0.098;exitY=0;exitDx=0;exitDy=0;exitPerimeter=0;" edge="1" parent="1">
          <mxGeometry width="50" height="50" relative="1" as="geometry">
            <mxPoint x="280" y="40" as="sourcePoint" />
            <mxPoint x="281" y="1000" as="targetPoint" />
          </mxGeometry>
        </mxCell>
        <mxCell id="eXjIsgKACJg5tTMsHQH0-5" value="" style="endArrow=none;dashed=1;html=1;dashPattern=1 3;strokeWidth=2;rounded=0;entryX=0.099;entryY=1;entryDx=0;entryDy=0;entryPerimeter=0;exitX=0.098;exitY=0;exitDx=0;exitDy=0;exitPerimeter=0;" edge="1" parent="1">
          <mxGeometry width="50" height="50" relative="1" as="geometry">
            <mxPoint x="360" y="40" as="sourcePoint" />
            <mxPoint x="361" y="1000" as="targetPoint" />
          </mxGeometry>
        </mxCell>
        <mxCell id="eXjIsgKACJg5tTMsHQH0-6" value="" style="endArrow=none;dashed=1;html=1;dashPattern=1 3;strokeWidth=2;rounded=0;entryX=0.099;entryY=1;entryDx=0;entryDy=0;entryPerimeter=0;exitX=0.098;exitY=0;exitDx=0;exitDy=0;exitPerimeter=0;" edge="1" parent="1">
          <mxGeometry width="50" height="50" relative="1" as="geometry">
            <mxPoint x="440" y="40" as="sourcePoint" />
            <mxPoint x="441" y="1000" as="targetPoint" />
          </mxGeometry>
        </mxCell>
        <mxCell id="eXjIsgKACJg5tTMsHQH0-7" value="" style="endArrow=none;dashed=1;html=1;dashPattern=1 3;strokeWidth=2;rounded=0;entryX=0.099;entryY=1;entryDx=0;entryDy=0;entryPerimeter=0;exitX=0.098;exitY=0;exitDx=0;exitDy=0;exitPerimeter=0;" edge="1" parent="1">
          <mxGeometry width="50" height="50" relative="1" as="geometry">
            <mxPoint x="520" y="40" as="sourcePoint" />
            <mxPoint x="521" y="1000" as="targetPoint" />
          </mxGeometry>
        </mxCell>
        <mxCell id="eXjIsgKACJg5tTMsHQH0-8" value="" style="endArrow=none;dashed=1;html=1;dashPattern=1 3;strokeWidth=2;rounded=0;entryX=0.099;entryY=1;entryDx=0;entryDy=0;entryPerimeter=0;exitX=0.098;exitY=0;exitDx=0;exitDy=0;exitPerimeter=0;" edge="1" parent="1">
          <mxGeometry width="50" height="50" relative="1" as="geometry">
            <mxPoint x="600" y="40" as="sourcePoint" />
            <mxPoint x="601" y="1000" as="targetPoint" />
          </mxGeometry>
        </mxCell>
        <mxCell id="eXjIsgKACJg5tTMsHQH0-9" value="" style="endArrow=none;dashed=1;html=1;dashPattern=1 3;strokeWidth=2;rounded=0;entryX=0.099;entryY=1;entryDx=0;entryDy=0;entryPerimeter=0;exitX=0.098;exitY=0;exitDx=0;exitDy=0;exitPerimeter=0;" edge="1" parent="1">
          <mxGeometry width="50" height="50" relative="1" as="geometry">
            <mxPoint x="680" y="40" as="sourcePoint" />
            <mxPoint x="681" y="1000" as="targetPoint" />
          </mxGeometry>
        </mxCell>
        <mxCell id="eXjIsgKACJg5tTMsHQH0-10" value="" style="endArrow=none;dashed=1;html=1;dashPattern=1 3;strokeWidth=2;rounded=0;entryX=0.099;entryY=1;entryDx=0;entryDy=0;entryPerimeter=0;exitX=0.098;exitY=0;exitDx=0;exitDy=0;exitPerimeter=0;" edge="1" parent="1">
          <mxGeometry width="50" height="50" relative="1" as="geometry">
            <mxPoint x="760" y="40" as="sourcePoint" />
            <mxPoint x="761" y="1000" as="targetPoint" />
          </mxGeometry>
        </mxCell>
      </root>
    </mxGraphModel>
  </diagram>
</mxfile>
